<svg xmlns="http://www.w3.org/2000/svg" fill="none" viewBox="0 0 394 80"><path fill="#000" d="M262 0h68.5v12.7h-27.3v66.6h-13.4V12.7H262V0ZM149 0v12.7H94v20.4h44.3v12.6H94v21h55v12.6H80.5V0h68.5zm34.3 0h-17V37.3H128V0h17v37.3h23V0zm30.8 0h-16.4v37.3H167V0h16.4zM245 0h-31v12.7h15.2V52h16v-40h-.2V0zm-54.4 51.6h12.6V0h-26c-3.3 0-6 .7-8.8 1.9-2.8 1.3-5.3 3-7.4 5a32.1 32.1 0 0 0-5.5 8.1 34 34 0 0 0-2.3 8.7 55.6 55.6 0 0 0-.2 8.9v4.9c0 3.2.1 6.3.3 9s.9 5.7 2 8.5c1.3 2.8 3 5.3 5.3 7.5 2.3 2.1 5 3.8 8.3 5a41 41 0 0 0 13.5 2h.6v-13h-2c-1.6 0-3-.2-4.3-.7a10 10 0 0 1-3.4-2.2 9.6 9.6 0 0 1-2.4-3.9 12.4 12.4 0 0 1-.9-5.6v-5.2h16.1v.6h.2z" /><path fill="#fff" d="M0 0v51.6h16V0H0zm33.3 0h-6.2v37.3H0V51.6h50v-12.6H33.3V0zm15.3 6.3h-7v45.3h16V0h-9v6.3z" /></svg>
