<svg xmlns="http://www.w3.org/2000/svg" fill="none" viewBox="0 0 283 64"><path fill="#000" d="M141 16c-11 0-19 7-19 18s9 18 20 18c7 0 13-3 16-7l-7-5c-2.2 2.7-5.7 4.5-9 4.5-6 0-10-4-10-10s4-10 10-10c3.3 0 6.9 1.8 9 4.5l7-5c-3-4-9-7-16-7z" /><path fill="#000" d="M0 28c0 11 9 20 20 20s20-9 20-20S31 8 20 8 0 17 0 28zm13-5c1.3-1.3 3-2 5-2 4 0 7 3 7 7s-3 7-7 7c-2 0-3.7-.7-5-2m38 5c0 11 9 20 20 20s20-9 20-20-9-20-20-20-20 9-20 20zm13-5c1.3-1.3 3-2 5-2 4 0 7 3 7 7s-3 7-7 7c-2 0-3.7-.7-5-2m80 28v-3c0-1 .9-2 2-2s2 1 2 2v3m0-12v-4c0-1 .9-2 2-2s2 1 2 2v4m0-6v2c0 1-.9 2-2 2s-2-1-2-2v-2m0-2v-4c0-1 .9-2 2-2s2 1 2 2v4" /></svg>
